# xmcd
# 
# Track frame offsets:
#     150
#     21553
#     37478
# 
# Disc length: 685
# 
# Revision: 0
# Processed by: cddbd v1.5.2PL0 Copyright (c) Steve Scherf et al.
# Submitted via: fre:ac v1.0.31
# 
DISCID=2902ab03
DTITLE=The Carpenters - The Rainbow Connection
DYEAR=2001
DGENRE=Acoustic
TTITLE0=The Rainbow Connection
TTITLE1=Leave Yesterday Behind
TTITLE2=Medley - Superstar - Rainy Days And Mondays
EXTD=
EXTT0=
EXTT1=
EXTT2=
PLAYORDER=
